<svg xmlns="http://www.w3.org/2000/svg" viewBox="0 0 260 300">
<defs>
<radialGradient id="bg"><stop stop-color="#b98524" stop-opacity=".5"/><stop offset=".55" stop-color="#1b0b28"/><stop offset="1" stop-color="#07040d"/></radialGradient>
<linearGradient id="skin" x1="0" y1="0" x2="1" y2="1"><stop stop-color="#ffe9a2"/><stop offset=".52" stop-color="#b98524"/><stop offset="1" stop-color="#ff5a9f"/></linearGradient>
</defs>
<rect width="260" height="300" rx="28" fill="url(#bg)"/>
<circle cx="28" cy="235" r="15" fill="none" stroke="#ffe9a2" stroke-width="4"/><circle cx="232" cy="235" r="15" fill="none" stroke="#ffe9a2" stroke-width="4"/>
<ellipse cx="130" cy="151" rx="100" ry="88" fill="none" stroke="#ffe9a2" stroke-opacity=".10" stroke-width="2"/>
<path d="M70 73 L84 32 L111 57 L130 20 L149 57 L178 32 L190 73Z" fill="#ffe9a2" stroke="#b98524" stroke-width="6"/>
<path d="M72 113 Q48 84 61 62 Q83 70 96 103Z" fill="#b98524" stroke="#29162f" stroke-width="6"/>
<path d="M188 113 Q212 84 199 62 Q177 70 164 103Z" fill="#b98524" stroke="#29162f" stroke-width="6"/>
<ellipse cx="130" cy="143" rx="86" ry="70" fill="url(#skin)" stroke="#29162f" stroke-width="7"/>
<ellipse cx="103" cy="132" rx="10" ry="7" fill="#140a17"/><ellipse cx="157" cy="132" rx="10" ry="7" fill="#140a17"/>
<circle cx="105" cy="127" r="3" fill="#fff"/><circle cx="160" cy="127" r="3" fill="#fff"/>
<ellipse cx="130" cy="169" rx="39" ry="27" fill="#ffe9a2" stroke="#29162f" stroke-width="5"/>
<ellipse cx="116" cy="166" rx="7" ry="9" fill="#3a1c2e"/><ellipse cx="144" cy="166" rx="7" ry="9" fill="#3a1c2e"/>
<path d="M116 184 Q130 193 144 184" fill="none" stroke="#29162f" stroke-width="4" stroke-linecap="round"/>
<path d="M75 206 Q130 188 185 206 L222 300 L38 300Z" fill="#b98524" stroke="#ffe9a2" stroke-width="6"/><path d="M91 211 Q130 224 169 211" fill="none" stroke="#ffe9a2" stroke-width="4"/>
<text x="130" y="283" text-anchor="middle" fill="#ffe9a2" font-family="Arial,sans-serif" font-size="8" font-weight="700" letter-spacing="1.7">#02 · GOLD</text>
</svg>