<svg xmlns="http://www.w3.org/2000/svg" viewBox="0 0 260 300">
<defs>
<radialGradient id="bg"><stop stop-color="#7c4e2e" stop-opacity=".5"/><stop offset=".55" stop-color="#1b0b28"/><stop offset="1" stop-color="#07040d"/></radialGradient>
<linearGradient id="skin" x1="0" y1="0" x2="1" y2="1"><stop stop-color="#f3c27a"/><stop offset=".52" stop-color="#7c4e2e"/><stop offset="1" stop-color="#ff5a9f"/></linearGradient>
</defs>
<rect width="260" height="300" rx="28" fill="url(#bg)"/>
<circle cx="34" cy="60" r="17" fill="none" stroke="#f3c27a" stroke-width="3" opacity=".4"/><path d="M34 49V61L42 67" stroke="#f3c27a" stroke-width="3" opacity=".4"/>
<ellipse cx="130" cy="151" rx="99" ry="84" fill="none" stroke="#f3c27a" stroke-opacity=".10" stroke-width="2"/>
<circle cx="130" cy="48" r="26" fill="none" stroke="#f3c27a" stroke-width="10" stroke-dasharray="8 7"/>
<path d="M72 113 Q48 84 61 62 Q83 70 96 103Z" fill="#7c4e2e" stroke="#29162f" stroke-width="6"/>
<path d="M188 113 Q212 84 199 62 Q177 70 164 103Z" fill="#7c4e2e" stroke="#29162f" stroke-width="6"/>
<ellipse cx="130" cy="143" rx="85" ry="66" fill="url(#skin)" stroke="#29162f" stroke-width="7"/>
<ellipse cx="103" cy="130" rx="8" ry="11" fill="#140a17"/><ellipse cx="157" cy="130" rx="8" ry="11" fill="#140a17"/>
<circle cx="105" cy="125" r="3" fill="#fff"/><circle cx="160" cy="125" r="3" fill="#fff"/>
<ellipse cx="130" cy="169" rx="39" ry="27" fill="#f3c27a" stroke="#29162f" stroke-width="5"/>
<ellipse cx="116" cy="166" rx="7" ry="9" fill="#3a1c2e"/><ellipse cx="144" cy="166" rx="7" ry="9" fill="#3a1c2e"/>
<path d="M116 184 Q130 193 144 184" fill="none" stroke="#29162f" stroke-width="4" stroke-linecap="round"/>
<path d="M62 214 Q130 187 198 214 L215 300 L45 300Z" fill="#7c4e2e" stroke="#f3c27a" stroke-width="6"/><path d="M104 216 L130 244 L156 216" fill="none" stroke="#f3c27a" stroke-width="5"/>
<text x="130" y="283" text-anchor="middle" fill="#f3c27a" font-family="Arial,sans-serif" font-size="8" font-weight="700" letter-spacing="1.7">#25 · STEAMPUNK</text>
</svg>