<svg xmlns="http://www.w3.org/2000/svg" viewBox="0 0 260 300">
<defs>
<radialGradient id="bg"><stop stop-color="#a54836" stop-opacity=".5"/><stop offset=".55" stop-color="#1b0b28"/><stop offset="1" stop-color="#07040d"/></radialGradient>
<linearGradient id="skin" x1="0" y1="0" x2="1" y2="1"><stop stop-color="#ffd2bf"/><stop offset=".52" stop-color="#a54836"/><stop offset="1" stop-color="#ff5a9f"/></linearGradient>
</defs>
<rect width="260" height="300" rx="28" fill="url(#bg)"/>

<ellipse cx="130" cy="151" rx="102" ry="82" fill="none" stroke="#ffd2bf" stroke-opacity=".10" stroke-width="2"/>
<rect x="78" y="61" width="46" height="27" rx="10" fill="#182027" stroke="#ffd2bf" stroke-width="5"/><rect x="136" y="61" width="46" height="27" rx="10" fill="#182027" stroke="#ffd2bf" stroke-width="5"/><path d="M124 73H136" stroke="#ffd2bf" stroke-width="4"/>
<path d="M72 113 Q48 84 61 62 Q83 70 96 103Z" fill="#a54836" stroke="#29162f" stroke-width="6"/>
<path d="M188 113 Q212 84 199 62 Q177 70 164 103Z" fill="#a54836" stroke="#29162f" stroke-width="6"/>
<ellipse cx="130" cy="143" rx="88" ry="64" fill="url(#skin)" stroke="#29162f" stroke-width="7"/>
<ellipse cx="103" cy="128" rx="8" ry="11" fill="#140a17"/><ellipse cx="157" cy="128" rx="8" ry="11" fill="#140a17"/>
<circle cx="105" cy="123" r="3" fill="#fff"/><circle cx="160" cy="123" r="3" fill="#fff"/>
<ellipse cx="130" cy="169" rx="39" ry="27" fill="#ffd2bf" stroke="#29162f" stroke-width="5"/>
<ellipse cx="116" cy="166" rx="7" ry="9" fill="#3a1c2e"/><ellipse cx="144" cy="166" rx="7" ry="9" fill="#3a1c2e"/>
<path d="M116 184 Q130 193 144 184" fill="none" stroke="#29162f" stroke-width="4" stroke-linecap="round"/>
<path d="M62 214 Q130 188 198 214 L215 300 L45 300Z" fill="#a54836" stroke="#ffd2bf" stroke-width="6"/><path d="M102 216 L130 244 L158 216" fill="none" stroke="#ffd2bf" stroke-width="5"/><rect x="72" y="250" width="28" height="22" fill="#ffd2bf"/>
<text x="130" y="283" text-anchor="middle" fill="#ffd2bf" font-family="Arial,sans-serif" font-size="8" font-weight="700" letter-spacing="1.7">#28 · MAD SCIENTIST</text>
</svg>