<svg xmlns="http://www.w3.org/2000/svg" viewBox="0 0 260 300">
<defs>
<radialGradient id="bg"><stop stop-color="#4c566d" stop-opacity=".5"/><stop offset=".55" stop-color="#1b0b28"/><stop offset="1" stop-color="#07040d"/></radialGradient>
<linearGradient id="skin" x1="0" y1="0" x2="1" y2="1"><stop stop-color="#e1eaff"/><stop offset=".52" stop-color="#4c566d"/><stop offset="1" stop-color="#ff5a9f"/></linearGradient>
</defs>
<rect width="260" height="300" rx="28" fill="url(#bg)"/>
<text x="18" y="56" fill="#e1eaff" opacity=".3" font-family="serif" font-size="18">Σ x²</text>
<ellipse cx="130" cy="151" rx="91" ry="87" fill="none" stroke="#e1eaff" stroke-opacity=".10" stroke-width="2"/>
<circle cx="158" cy="77" r="20" fill="none" stroke="#e1eaff" stroke-width="5"/><path d="M177 77 Q197 82 190 108" fill="none" stroke="#e1eaff" stroke-width="3"/>
<path d="M72 113 Q48 84 61 62 Q83 70 96 103Z" fill="#4c566d" stroke="#29162f" stroke-width="6"/>
<path d="M188 113 Q212 84 199 62 Q177 70 164 103Z" fill="#4c566d" stroke="#29162f" stroke-width="6"/>
<ellipse cx="130" cy="143" rx="77" ry="69" fill="url(#skin)" stroke="#29162f" stroke-width="7"/>
<ellipse cx="103" cy="130" rx="10" ry="7" fill="#140a17"/><ellipse cx="157" cy="130" rx="10" ry="7" fill="#140a17"/>
<circle cx="105" cy="125" r="3" fill="#fff"/><circle cx="160" cy="125" r="3" fill="#fff"/>
<ellipse cx="130" cy="169" rx="39" ry="27" fill="#e1eaff" stroke="#29162f" stroke-width="5"/>
<ellipse cx="116" cy="166" rx="7" ry="9" fill="#3a1c2e"/><ellipse cx="144" cy="166" rx="7" ry="9" fill="#3a1c2e"/>
<path d="M116 184 Q130 193 144 184" fill="none" stroke="#29162f" stroke-width="4" stroke-linecap="round"/>
<path d="M62 214 Q130 187 198 214 L215 300 L45 300Z" fill="#4c566d" stroke="#e1eaff" stroke-width="6"/><path d="M104 216 L130 244 L156 216" fill="none" stroke="#e1eaff" stroke-width="5"/>
<text x="130" y="283" text-anchor="middle" fill="#e1eaff" font-family="Arial,sans-serif" font-size="8" font-weight="700" letter-spacing="1.7">#29 · GENIUS</text>
</svg>