<svg xmlns="http://www.w3.org/2000/svg" viewBox="0 0 260 300">
<defs>
<radialGradient id="bg"><stop stop-color="#2c2831" stop-opacity=".5"/><stop offset=".55" stop-color="#1b0b28"/><stop offset="1" stop-color="#07040d"/></radialGradient>
<linearGradient id="skin" x1="0" y1="0" x2="1" y2="1"><stop stop-color="#eadbe2"/><stop offset=".52" stop-color="#2c2831"/><stop offset="1" stop-color="#ff5a9f"/></linearGradient>
</defs>
<rect width="260" height="300" rx="28" fill="url(#bg)"/>
<circle cx="218" cy="58" r="15" fill="none" stroke="#eadbe2" stroke-width="4" opacity=".35"/>
<ellipse cx="130" cy="151" rx="89" ry="86" fill="none" stroke="#eadbe2" stroke-opacity=".10" stroke-width="2"/>
<path d="M70 74 Q84 27 130 21 Q176 27 190 74Z" fill="#eadbe2" stroke="#2c2831" stroke-width="6"/><path d="M60 79 Q130 66 200 79" fill="none" stroke="#2c2831" stroke-width="10"/>
<path d="M72 113 Q48 84 61 62 Q83 70 96 103Z" fill="#2c2831" stroke="#29162f" stroke-width="6"/>
<path d="M188 113 Q212 84 199 62 Q177 70 164 103Z" fill="#2c2831" stroke="#29162f" stroke-width="6"/>
<ellipse cx="130" cy="143" rx="75" ry="68" fill="url(#skin)" stroke="#29162f" stroke-width="7"/>
<circle cx="104" cy="134" r="9" fill="#140a17"/><circle cx="156" cy="134" r="9" fill="#140a17"/>
<circle cx="105" cy="129" r="3" fill="#fff"/><circle cx="160" cy="129" r="3" fill="#fff"/>
<ellipse cx="130" cy="169" rx="39" ry="27" fill="#eadbe2" stroke="#29162f" stroke-width="5"/>
<ellipse cx="116" cy="166" rx="7" ry="9" fill="#3a1c2e"/><ellipse cx="144" cy="166" rx="7" ry="9" fill="#3a1c2e"/>
<path d="M116 184 Q130 193 144 184" fill="none" stroke="#29162f" stroke-width="4" stroke-linecap="round"/>
<path d="M78 215 L130 235 L182 215 L194 300 L66 300Z" fill="#2c2831" stroke="#eadbe2" stroke-width="6"/><path d="M130 235V300" stroke="#eadbe2" stroke-width="4"/>
<text x="130" y="283" text-anchor="middle" fill="#eadbe2" font-family="Arial,sans-serif" font-size="8" font-weight="700" letter-spacing="1.7">#39 · MAFIA BOSS</text>
</svg>