<svg xmlns="http://www.w3.org/2000/svg" viewBox="0 0 260 300">
<defs>
<radialGradient id="bg"><stop stop-color="#9e79e8" stop-opacity=".5"/><stop offset=".55" stop-color="#1b0b28"/><stop offset="1" stop-color="#07040d"/></radialGradient>
<linearGradient id="skin" x1="0" y1="0" x2="1" y2="1"><stop stop-color="#ffffff"/><stop offset=".52" stop-color="#9e79e8"/><stop offset="1" stop-color="#ff5a9f"/></linearGradient>
</defs>
<rect width="260" height="300" rx="28" fill="url(#bg)"/>
<g fill="#ffffff"><circle cx="35" cy="48" r="4"/><circle cx="220" cy="60" r="5"/><circle cx="30" cy="190" r="3"/><circle cx="225" cy="205" r="3"/></g>
<ellipse cx="130" cy="151" rx="96" ry="81" fill="none" stroke="#ffffff" stroke-opacity=".10" stroke-width="2"/>
<polygon points="130,18 161,42 151,77 109,77 99,42" fill="#ffffff" stroke="#9e79e8" stroke-width="5"/>
<path d="M72 113 Q48 84 61 62 Q83 70 96 103Z" fill="#9e79e8" stroke="#29162f" stroke-width="6"/>
<path d="M188 113 Q212 84 199 62 Q177 70 164 103Z" fill="#9e79e8" stroke="#29162f" stroke-width="6"/>
<ellipse cx="130" cy="143" rx="82" ry="63" fill="url(#skin)" stroke="#29162f" stroke-width="7"/>
<ellipse cx="103" cy="128" rx="8" ry="11" fill="#140a17"/><ellipse cx="157" cy="128" rx="8" ry="11" fill="#140a17"/>
<circle cx="105" cy="123" r="3" fill="#fff"/><circle cx="160" cy="123" r="3" fill="#fff"/>
<ellipse cx="130" cy="169" rx="39" ry="27" fill="#ffffff" stroke="#29162f" stroke-width="5"/>
<ellipse cx="116" cy="166" rx="7" ry="9" fill="#3a1c2e"/><ellipse cx="144" cy="166" rx="7" ry="9" fill="#3a1c2e"/>
<path d="M116 184 Q130 193 144 184" fill="none" stroke="#29162f" stroke-width="4" stroke-linecap="round"/>
<path d="M64 218 Q130 190 196 218 L214 300 L46 300Z" fill="#9e79e8" stroke="#29162f" stroke-width="7"/>
<text x="130" y="283" text-anchor="middle" fill="#ffffff" font-family="Arial,sans-serif" font-size="8" font-weight="700" letter-spacing="1.7">#04 · DIAMOND</text>
</svg>